<svg width="2000" height="1400" xmlns="http://www.w3.org/2000/svg"><path fill="#fef1e5" d="M0 0h2000v1400H0z"/><path d="M0 140h0c45.547 7.915 91.094 15.831 131 10 39.906-5.831 74.172-25.408 113-29 38.828-3.592 82.218 8.803 124 11 41.782 2.197 81.955-5.802 123-8 41.045-2.198 82.96 1.405 127 6 44.04 4.595 90.202 10.18 136 8 45.798-2.18 91.23-12.127 131-20 39.77-7.873 73.878-13.672 112-2s80.26 40.814 123 51c42.74 10.186 86.085 1.415 128-13 41.915-14.415 82.399-34.474 125-38 42.601-3.526 87.318 9.48 132 17s89.327 9.552 130 11c40.673 1.448 77.373 2.313 119 1 41.627-1.313 88.179-4.804 130-6 41.821-1.196 78.91-.098 156 1" fill="none" stroke="#fb8516" stroke-width="6" stroke-linecap="round"/><path d="M0 280h0c44.525 5.662 89.05 11.323 127 16s69.323 8.368 111 6c41.677-2.368 93.657-10.795 140-22s87.05-25.19 129-22c41.95 3.19 85.147 23.552 125 36 39.853 12.448 76.364 16.982 117 11 40.636-5.982 85.398-22.478 127-23 41.602-.522 80.045 14.93 124 11 43.955-3.93 93.424-27.245 133-35 39.576-7.755 69.26.048 112-1 42.74-1.048 98.535-10.948 140-2s68.6 36.743 108 49c39.4 12.257 91.066 8.976 135-4s80.136-35.647 118-40c37.864-4.353 77.39 9.614 120 16 42.61 6.386 88.305 5.193 174 4" fill="none" stroke="#fdcb9c" stroke-width="6" stroke-linecap="round"/><path d="M0 420h0c34.916.142 69.831.283 115 2s100.59 5.008 145 10 77.809 11.685 118 12c40.191.315 87.175-5.748 127-7 39.825-1.252 72.49 2.307 111 5 38.51 2.693 82.862 4.521 126 1 43.138-3.521 85.063-12.392 128-21s86.887-16.951 132-16c45.113.951 91.388 11.198 129 13 37.612 1.802 66.562-4.842 109-7 42.438-2.158 98.366.17 139 11s65.974 30.159 108 23c42.026-7.159 100.739-40.805 147-47 46.261-6.195 80.07 15.063 121 22 40.93 6.937 88.98-.447 131-3 42.02-2.553 78.01-.277 154 2" fill="none" stroke="#fdbd81" stroke-width="6" stroke-linecap="round"/><path d="M0 560h0c47.293-2.024 94.585-4.048 133-2 38.415 2.048 67.952 8.168 104 6 36.048-2.168 78.605-12.624 126-11 47.395 1.624 99.626 15.327 144 11 44.374-4.327 80.89-26.686 121-23s83.813 33.416 122 41c38.187 7.584 70.858-6.978 113-9 42.142-2.022 93.757 8.495 135 4 41.243-4.495 72.115-24.003 115-22 42.885 2.003 97.781 25.518 144 29 46.219 3.482 83.759-13.07 121-17 37.241-3.93 74.183 4.762 116 8 41.817 3.238 88.508 1.023 134-10 45.492-11.023 89.786-30.852 127-32 37.214-1.148 67.347 16.386 107 24 39.653 7.614 88.827 5.307 178 3" fill="none" stroke="#fca24e" stroke-width="6" stroke-linecap="round"/><path d="M0 700h0c40.918 8.583 81.836 17.166 122 16 40.164-1.166 79.574-12.083 119-10s78.869 17.164 124 15c45.131-2.164 95.95-21.573 138-32s75.33-11.871 113-10c37.67 1.871 79.733 7.058 126 13 46.267 5.942 96.74 12.638 139 22 42.26 9.362 76.31 21.391 118 11 41.69-10.391 91.02-43.203 136-48 44.98-4.797 85.608 18.422 122 30 36.392 11.578 68.548 11.515 111 12 42.452.485 95.198 1.52 139-9 43.802-10.52 78.658-32.593 114-31 35.342 1.593 71.169 26.852 117 26 45.831-.852 101.666-27.815 147-33 45.334-5.185 80.167 11.407 155 28" fill="none" stroke="#fb8d25" stroke-width="6" stroke-linecap="round"/><path d="M0 840h0c42.58-4.922 85.158-9.844 128-4 42.842 5.844 85.947 22.453 123 27 37.053 4.547 68.056-2.969 112-10 43.944-7.031 100.83-13.577 143-11s69.623 14.278 111 17c41.377 2.722 96.68-3.535 142-9 45.32-5.465 80.66-10.138 117-8s73.68 11.086 114 9c40.32-2.086 83.619-15.207 128-16 44.381-.793 89.846 10.74 134 7 44.154-3.74 87-22.753 125-29s71.158.274 114 3 95.37 1.659 143 2c47.63.341 90.362 2.092 126 10 35.638 7.908 64.182 21.974 103 25s87.909-4.987 177-13" fill="none" stroke="#fca14d" stroke-width="6" stroke-linecap="round"/><path d="M0 980h0c37.783 13.795 75.565 27.59 120 26 44.435-1.59 95.521-18.568 141-20 45.479-1.432 85.35 12.682 121 17 35.65 4.318 67.082-1.16 106-3 38.918-1.84 85.322-.04 131-10s90.631-31.676 133-36c42.369-4.324 82.153 8.745 122 23 39.847 14.255 79.756 29.696 124 27 44.244-2.696 92.824-23.528 138-28 45.176-4.472 86.946 7.414 124 4 37.054-3.414 69.39-22.13 111-15 41.61 7.13 92.495 40.107 133 40 40.505-.107 70.63-33.297 110-42 39.37-8.703 87.984 7.08 135 11 47.016 3.92 92.433-4.023 134-5 41.567-.977 79.283 5.011 157 11" fill="none" stroke="#fdd5b0" stroke-width="6" stroke-linecap="round"/><path d="M0 1120h0c38.332-17.836 76.664-35.673 120-28 43.336 7.673 91.675 40.854 134 52s78.635.255 121-6c42.365-6.255 90.783-7.876 136-16 45.217-8.124 87.232-22.752 126-22 38.768.752 74.29 16.885 111 20 36.71 3.115 74.61-6.787 119-9s95.268 3.262 138 14 77.317 26.737 115 20c37.683-6.737 78.464-36.212 123-50 44.536-13.788 92.828-11.89 135 2s78.223 39.769 115 39c36.777-.769 74.28-28.185 120-31 45.72-2.815 99.655 18.973 141 30 41.345 11.027 70.098 11.293 109 7 38.902-4.293 87.95-13.147 177-22" fill="none" stroke="#fb8f2a" stroke-width="6" stroke-linecap="round"/><path d="M0 1260h0c41.924 7.313 83.847 14.626 122 18 38.153 3.374 72.535 2.808 116-1s96.014-10.859 139-19c42.986-8.141 76.41-17.373 115-20 38.59-2.627 82.346 1.349 128 9 45.654 7.651 93.207 18.977 134 22 40.793 3.023 74.826-2.256 115-11 40.174-8.744 86.49-20.954 130-23 43.51-2.046 84.217 6.073 128 17s90.641 24.661 135 22c44.359-2.661 86.218-21.718 124-26s71.489 6.212 113 6c41.511-.212 90.828-11.129 133-2s77.2 38.304 117 35c39.8-3.304 84.371-39.087 127-49 42.629-9.913 83.314 6.043 164 22" fill="none" stroke="#fb9738" stroke-width="6" stroke-linecap="round"/></svg>